# xmcd CD database file
#
# Track frame offsets:
#	150
#	13860
#	27572
#	36580
#	50235
#	64842
#	83935
#	96950
#	112425
#	125917
#	139992
#	154242
#
# Disc length: 2220 seconds
#
# Revision: 0
# Processed by: cddbd v1.5.1PL2 Copyright (c) Steve Scherf et al.
# Submitted via: CDex 1.51
#
DISCID=c208aa0c
DTITLE=Joe Hudgkins - Portland Daheim
DYEAR=1900
DGENRE=Country
TTITLE0=Es gibt immer einen Grund
TTITLE1=Portland Daheim
TTITLE2=Es ist mir so egal
TTITLE3=Wer kennt schon die Frauen
TTITLE4=Sie war so treu wie Gold
TTITLE5=Wo bist Du
TTITLE6=Das Leben hat Vorfahrt
TTITLE7=Nimm dir Zeit für deine Freunde
TTITLE8=Ich will raus auf das Land
TTITLE9=Wenig und doch viel zu viel
TTITLE10=Roter Mini
TTITLE11=Wenn du Freunde hast
EXTD=
EXTT0=
EXTT1=
EXTT2=
EXTT3=
EXTT4=
EXTT5=
EXTT6=
EXTT7=
EXTT8=
EXTT9=
EXTT10=
EXTT11=
PLAYORDER=
